<mxfile host="drawio-plugin" agent="Mozilla/5.0 (Windows NT 10.0; Win64; x64) AppleWebKit/537.36 (KHTML, like Gecko) Chrome/122.0.0.0 Safari/537.36" modified="2025-02-01T12:35:51.224Z" etag="l0aYJ-CFP5qMSKJVQWua" version="22.1.22" type="embed">
  <diagram name="Page-1" id="OVcS8Alv_T-uJs1jZaDE">
    <mxGraphModel dx="1293" dy="725" grid="1" gridSize="10" guides="1" tooltips="1" connect="1" arrows="1" fold="1" page="1" pageScale="1" pageWidth="850" pageHeight="1100" math="0" shadow="0">
      <root>
        <mxCell id="0" />
        <mxCell id="1" parent="0" />
        <mxCell id="XHiDL_9w_AK1erUn259C-4" value="&lt;font style=&quot;font-size: 20px;&quot;&gt;Publication&lt;/font&gt;" style="swimlane;whiteSpace=wrap;html=1;fontSize=15;startSize=40;" parent="1" vertex="1">
          <mxGeometry x="520" y="170" width="240" height="320" as="geometry">
            <mxRectangle x="510" y="110" width="100" height="30" as="alternateBounds" />
          </mxGeometry>
        </mxCell>
        <mxCell id="XHiDL_9w_AK1erUn259C-8" value="&lt;div align=&quot;left&quot;&gt;&lt;font face=&quot;Helvetica&quot;&gt;title: str&lt;br&gt;&lt;br&gt;&lt;/font&gt;&lt;/div&gt;&lt;div align=&quot;left&quot;&gt;&lt;font face=&quot;Helvetica&quot;&gt;content: text&lt;br&gt;&lt;br&gt;created_at: date&lt;/font&gt;&lt;/div&gt;&lt;div align=&quot;left&quot;&gt;&lt;font face=&quot;Helvetica&quot;&gt;&lt;br&gt;&lt;/font&gt;&lt;/div&gt;&lt;div align=&quot;left&quot;&gt;&lt;font face=&quot;Helvetica&quot;&gt;publication_date: date&lt;br&gt;&lt;br&gt;subject: Subject&lt;br&gt;&lt;br&gt;executives: List[Editor]&lt;/font&gt;&lt;/div&gt;" style="text;html=1;align=left;verticalAlign=bottom;resizable=0;points=[];autosize=1;strokeColor=none;fillColor=none;fontSize=17;horizontal=1;fontFamily=Tahoma;" parent="XHiDL_9w_AK1erUn259C-4" vertex="1">
          <mxGeometry x="10" y="40" width="190" height="260" as="geometry" />
        </mxCell>
        <mxCell id="XHiDL_9w_AK1erUn259C-10" value="&lt;font style=&quot;font-size: 20px;&quot;&gt;Editor(AbstractUser)&lt;/font&gt;" style="swimlane;whiteSpace=wrap;html=1;fontSize=15;startSize=40;" parent="1" vertex="1">
          <mxGeometry x="110" y="440" width="240" height="295" as="geometry">
            <mxRectangle x="510" y="110" width="100" height="30" as="alternateBounds" />
          </mxGeometry>
        </mxCell>
        <mxCell id="XHiDL_9w_AK1erUn259C-11" value="&lt;div&gt;&lt;u&gt;experience&lt;/u&gt;: int&lt;/div&gt;&lt;div&gt;&lt;br&gt;&lt;/div&gt;&lt;div&gt;username: str&lt;/div&gt;&lt;div&gt;&lt;br&gt;&lt;/div&gt;&lt;div&gt;email:str&lt;/div&gt;&lt;div&gt;&lt;br&gt;&lt;/div&gt;&lt;div&gt;password: str&lt;/div&gt;&lt;div&gt;&lt;br&gt;&lt;/div&gt;&lt;div&gt;first_name: str&lt;/div&gt;&lt;div&gt;&lt;br&gt;&lt;/div&gt;&lt;div&gt;last_name: str&lt;/div&gt;" style="text;html=1;align=left;verticalAlign=bottom;resizable=0;points=[];autosize=1;strokeColor=none;fillColor=none;fontSize=17;horizontal=1;fontFamily=Tahoma;" parent="XHiDL_9w_AK1erUn259C-10" vertex="1">
          <mxGeometry x="20" y="38" width="130" height="240" as="geometry" />
        </mxCell>
        <mxCell id="XHiDL_9w_AK1erUn259C-14" style="edgeStyle=orthogonalEdgeStyle;rounded=0;orthogonalLoop=1;jettySize=auto;html=1;exitX=1;exitY=0.25;exitDx=0;exitDy=0;entryX=0;entryY=0.75;entryDx=0;entryDy=0;strokeWidth=1;startArrow=diamondThin;startFill=1;targetPerimeterSpacing=11;sourcePerimeterSpacing=5;endArrow=baseDash;endFill=0;jumpSize=6;endSize=10;" parent="1" source="XHiDL_9w_AK1erUn259C-12" target="XHiDL_9w_AK1erUn259C-4" edge="1">
          <mxGeometry relative="1" as="geometry" />
        </mxCell>
        <mxCell id="XHiDL_9w_AK1erUn259C-12" value="Subject" style="swimlane;whiteSpace=wrap;html=1;fontSize=20;startSize=40;" parent="1" vertex="1">
          <mxGeometry x="110" y="220" width="240" height="90" as="geometry">
            <mxRectangle x="510" y="110" width="100" height="30" as="alternateBounds" />
          </mxGeometry>
        </mxCell>
        <mxCell id="XHiDL_9w_AK1erUn259C-13" value="&lt;div align=&quot;left&quot;&gt;&lt;font face=&quot;Helvetica&quot;&gt;name: str&lt;/font&gt;&lt;/div&gt;" style="text;html=1;align=left;verticalAlign=bottom;resizable=0;points=[];autosize=1;strokeColor=none;fillColor=none;fontSize=17;horizontal=1;fontFamily=Tahoma;" parent="XHiDL_9w_AK1erUn259C-12" vertex="1">
          <mxGeometry x="10" y="50" width="90" height="30" as="geometry" />
        </mxCell>
        <mxCell id="XHiDL_9w_AK1erUn259C-15" value="&lt;font style=&quot;font-size: 17px;&quot;&gt;1&lt;/font&gt;" style="text;strokeColor=none;align=center;fillColor=none;html=1;verticalAlign=middle;whiteSpace=wrap;rounded=0;" parent="1" vertex="1">
          <mxGeometry x="330" y="210" width="60" height="30" as="geometry" />
        </mxCell>
        <mxCell id="XHiDL_9w_AK1erUn259C-17" value="" style="endArrow=classic;startArrow=classic;html=1;rounded=0;exitX=1.005;exitY=0.087;exitDx=0;exitDy=0;exitPerimeter=0;" parent="1" source="XHiDL_9w_AK1erUn259C-10" edge="1">
          <mxGeometry width="50" height="50" relative="1" as="geometry">
            <mxPoint x="450" y="540" as="sourcePoint" />
            <mxPoint x="520" y="466" as="targetPoint" />
          </mxGeometry>
        </mxCell>
        <mxCell id="XHiDL_9w_AK1erUn259C-19" value="&lt;font style=&quot;font-size: 17px;&quot;&gt;0..n&lt;/font&gt;" style="text;strokeColor=none;align=center;fillColor=none;html=1;verticalAlign=middle;whiteSpace=wrap;rounded=0;" parent="1" vertex="1">
          <mxGeometry x="350" y="470" width="60" height="30" as="geometry" />
        </mxCell>
        <mxCell id="XHiDL_9w_AK1erUn259C-20" value="&lt;font style=&quot;font-size: 17px;&quot;&gt;0..n&lt;/font&gt;" style="text;strokeColor=none;align=center;fillColor=none;html=1;verticalAlign=middle;whiteSpace=wrap;rounded=0;" parent="1" vertex="1">
          <mxGeometry x="460" y="470" width="60" height="30" as="geometry" />
        </mxCell>
        <mxCell id="XHiDL_9w_AK1erUn259C-16" value="&lt;font style=&quot;font-size: 17px;&quot;&gt;n&lt;/font&gt;" style="text;strokeColor=none;align=center;fillColor=none;html=1;verticalAlign=middle;whiteSpace=wrap;rounded=0;" parent="1" vertex="1">
          <mxGeometry x="470" y="370" width="60" height="30" as="geometry" />
        </mxCell>
      </root>
    </mxGraphModel>
  </diagram>
</mxfile>
